Coordinates
version=1
nRows=37
nColumns=38
inDegrees=no

Units are S.I. units (second, meters, Newtons, ...)
If the header above contains a line with 'inDegrees', this indicates whether rotational values are in degrees (yes) or radians (no).

endheader
time	pelvis_tilt	pelvis_list	pelvis_rotation	pelvis_tx	pelvis_ty	pelvis_tz	hip_flexion_r	hip_adduction_r	hip_rotation_r	knee_angle_r	ankle_angle_r	subtalar_angle_r	mtp_angle_r	hip_flexion_l	hip_adduction_l	hip_rotation_l	knee_angle_l	ankle_angle_l	subtalar_angle_l	mtp_angle_l	lumbar_extension	lumbar_bending	lumbar_rotation	arm_flex_r	arm_add_r	arm_rot_r	elbow_flex_r	pro_sup_r	wrist_flex_r	wrist_dev_r	arm_flex_l	arm_add_l	arm_rot_l	elbow_flex_l	pro_sup_l	wrist_flex_l	wrist_dev_l
0	1.08081	1.52843	-2.64646	0.657933	1.86818	0.96104	-0.0379657	-0.0823663	-0.235064	0.177468	0.091822	0	0	-0.14005	0.062655	-0.168718	0	0.0500562	0	0	-0.0100375	-0.0467623	0.00989539	-0.0730846	-0.0948999	-0.283683	0.287117	1.5708	0	0	0.0919197	-0.149403	-0.525643	0.0748102	1.5708	0	0
0.01	1.02405	1.52858	-2.59173	0.658141	1.8673	0.961216	-0.0477343	-0.0798116	-0.234567	0.16401	0.0865127	0	0	-0.142289	0.0617902	-0.172677	0	0.0510705	0	0	-0.00889393	-0.0452313	0.00831905	-0.0719759	-0.0953594	-0.284032	0.282172	1.5708	0	0	0.0963178	-0.145527	-0.538087	0.0571902	1.5708	0	0
0.02	0.951053	1.52784	-2.51866	0.658623	1.86668	0.961454	-0.0584295	-0.077853	-0.236959	0.151058	0.081347	0	0	-0.145723	0.061153	-0.173809	0	0.0516577	0	0	-0.00972877	-0.043793	0.00480364	-0.0704975	-0.0958874	-0.283154	0.278675	1.5708	0	0	0.100344	-0.141415	-0.545538	0.0426371	1.5708	0	0
0.03	0.880958	1.52698	-2.44953	0.659053	1.86599	0.961639	-0.0684523	-0.0761113	-0.238334	0.139164	0.0766287	0	0	-0.150046	0.0605746	-0.176161	0	0.0524862	0	0	-0.0102899	-0.0420482	0.00258397	-0.0698424	-0.0964659	-0.28173	0.276472	1.5708	0	0	0.10314	-0.136838	-0.550324	0.0308113	1.5708	0	0
0.04	0.814981	1.52633	-2.38596	0.659346	1.86522	0.961754	-0.0772506	-0.0743936	-0.237856	0.128825	0.0725706	0	0	-0.155032	0.0598572	-0.178849	0	0.0534488	0	0	-0.0101439	-0.0397958	0.00177342	-0.0697126	-0.0971717	-0.279204	0.274833	1.5708	0	0	0.103867	-0.131884	-0.551097	0.0228893	1.5708	0	0
0.05	0.748877	1.52571	-2.32318	0.659427	1.86445	0.961817	-0.0847909	-0.0725462	-0.23585	0.120417	0.0694471	0	0	-0.160287	0.0588072	-0.180801	0	0.0545414	0	0	-0.00989617	-0.0374762	0.00184133	-0.0699071	-0.0975708	-0.275732	0.274069	1.5708	0	0	0.103221	-0.126992	-0.548707	0.0182294	1.5708	0	0
0.06	0.692398	1.52504	-2.27024	0.659467	1.8637	0.961802	-0.0904283	-0.0712733	-0.233981	0.114927	0.0675609	0	0	-0.164879	0.0581021	-0.181944	0	0.0555067	0	0	-0.00939978	-0.0353695	0.00210646	-0.0705277	-0.097882	-0.271283	0.274226	1.5708	0	0	0.101566	-0.121852	-0.544147	0.0164307	1.5708	0	0
0.07	0.650252	1.5244	-2.23174	0.659495	1.863	0.961741	-0.094077	-0.0707204	-0.23185	0.112084	0.0665352	0	0	-0.168203	0.057723	-0.183758	0	0.056798	0	0	-0.00853775	-0.0336141	0.00255868	-0.0712322	-0.0980328	-0.265659	0.274784	1.5708	0	0	0.0986661	-0.116438	-0.536757	0.0182465	1.5708	0	0
0.08	0.622351	1.52437	-2.20793	0.659493	1.86242	0.961621	-0.0950658	-0.0705614	-0.228791	0.111901	0.06632	0	0	-0.169827	0.0576006	-0.185097	0	0.0578914	0	0	-0.00694062	-0.0318884	0.00365951	-0.0719323	-0.0979675	-0.260201	0.275797	1.5708	0	0	0.0946423	-0.111201	-0.526388	0.0228232	1.5708	0	0
0.09	0.598635	1.52451	-2.18876	0.659414	1.86185	0.961504	-0.094678	-0.0704617	-0.225033	0.113463	0.0666014	0	0	-0.17097	0.0575145	-0.186112	0	0.0590182	0	0	-0.00501458	-0.0302681	0.00525161	-0.0725255	-0.0973793	-0.256008	0.276583	1.5708	0	0	0.090329	-0.106292	-0.517292	0.0274922	1.5708	0	0
0.1	0.588816	1.52499	-2.184	0.659287	1.86123	0.961368	-0.0926486	-0.0707481	-0.220982	0.116561	0.0673876	0	0	-0.171378	0.0578676	-0.188174	0	0.0598612	0	0	-0.00211636	-0.0290154	0.00745547	-0.073068	-0.0964738	-0.254352	0.276509	1.5708	0	0	0.0855971	-0.101566	-0.508759	0.0323886	1.5708	0	0
0.11	0.592671	1.52577	-2.19253	0.65919	1.86063	0.961231	-0.0893795	-0.0713803	-0.217713	0.120878	0.0687016	0	0	-0.170937	0.0585386	-0.190884	0	0.0605351	0	0	0.00139642	-0.0281015	0.0095009	-0.0736245	-0.0952193	-0.252825	0.276153	1.5708	0	0	0.0813812	-0.0972568	-0.503606	0.0361358	1.5708	0	0
0.12	0.589557	1.526	-2.19175	0.659263	1.8602	0.961187	-0.0872118	-0.0717564	-0.216769	0.124715	0.0696807	0	0	-0.170562	0.0589504	-0.190378	0	0.0609771	0	0	0.00330203	-0.0273125	0.00942321	-0.0735999	-0.0936169	-0.25162	0.276201	1.5708	0	0	0.078619	-0.0933874	-0.501112	0.0386448	1.5708	0	0
0.13	0.594981	1.52644	-2.19898	0.659348	1.8598	0.961156	-0.0849936	-0.0721619	-0.215922	0.127885	0.0702839	0	0	-0.169626	0.0594402	-0.190225	0	0.0613966	0	0	0.00544442	-0.0267305	0.00871559	-0.0733799	-0.0919297	-0.252844	0.276959	1.5708	0	0	0.0759825	-0.0898506	-0.500096	0.0408437	1.5708	0	0
0.14	0.604682	1.5269	-2.21001	0.65949	1.8594	0.961141	-0.0831505	-0.0726766	-0.215398	0.130257	0.0705164	0	0	-0.168398	0.0600191	-0.190668	0	0.0619422	0	0	0.00786465	-0.0263697	0.00776555	-0.07353	-0.0903041	-0.25455	0.278189	1.5708	0	0	0.0737142	-0.086674	-0.499804	0.0420569	1.5708	0	0
0.15	0.616494	1.52753	-2.22278	0.659655	1.85901	0.961123	-0.08163	-0.0730542	-0.214623	0.131808	0.0705815	0	0	-0.166976	0.0605286	-0.191048	0.000179062	0.0623953	0	0	0.0104606	-0.0259903	0.00665971	-0.074236	-0.0887376	-0.253739	0.279804	1.5708	0	0	0.07156	-0.0837862	-0.499369	0.0431602	1.5708	0	0
0.16	0.633379	1.52837	-2.24046	0.659844	1.85869	0.961079	-0.0799463	-0.0735237	-0.213438	0.133085	0.070623	0	0	-0.164971	0.0610731	-0.191433	0.00219532	0.0628831	0	0	0.0131338	-0.0255375	0.00547496	-0.0749088	-0.0875062	-0.253287	0.282046	1.5708	0	0	0.069476	-0.0810039	-0.49869	0.0446721	1.5708	0	0
0.17	0.648411	1.52939	-2.25639	0.659988	1.85832	0.961022	-0.0788262	-0.0737065	-0.21181	0.133093	0.0700996	0	0	-0.163319	0.0613763	-0.192694	0.0034657	0.0632683	0	0	0.0159731	-0.024775	0.00455847	-0.0760334	-0.086702	-0.253246	0.285178	1.5708	0	0	0.0670092	-0.0784764	-0.497175	0.0469378	1.5708	0	0
0.18	0.662833	1.5306	-2.27225	0.660081	1.85784	0.960939	-0.0780081	-0.0736769	-0.209589	0.132344	0.0693707	0	0	-0.162247	0.0616415	-0.195028	0.00354556	0.063361	0	0	0.0193532	-0.0237352	0.00452968	-0.0784498	-0.0864267	-0.249173	0.289694	1.5708	0	0	0.0635494	-0.0759948	-0.49202	0.0509473	1.5708	0	0
0.19	0.665883	1.53124	-2.27564	0.660266	1.85745	0.96092	-0.0783957	-0.073586	-0.208995	0.131143	0.0685953	0	0	-0.161693	0.0616764	-0.196516	0.00405834	0.0637046	0	0	0.0215968	-0.0227784	0.00359585	-0.080244	-0.0863225	-0.245425	0.293765	1.5708	0	0	0.0599601	-0.0737302	-0.484616	0.0563516	1.5708	0	0
0.2	0.659819	1.53173	-2.26896	0.660505	1.85713	0.960926	-0.0796245	-0.0731799	-0.209481	0.129147	0.0672879	0	0	-0.160933	0.0612722	-0.197247	0.00557421	0.0646	0	0	0.0229635	-0.0217652	0.00193073	-0.0820499	-0.0864257	-0.241174	0.298775	1.5708	0	0	0.0555682	-0.0717124	-0.472963	0.0645905	1.5708	0	0
0.21	0.652016	1.53197	-2.25981	0.660797	1.85689	0.960936	-0.0811487	-0.0729902	-0.211216	0.127231	0.0662589	0	0	-0.160234	0.0608369	-0.196794	0.00733048	0.0655839	0	0	0.0236177	-0.0209948	-0.000182181	-0.0830212	-0.0864309	-0.238775	0.302536	1.5708	0	0	0.0529702	-0.0704018	-0.465951	0.0698988	1.5708	0	0
0.22	0.642578	1.53189	-2.24829	0.66114	1.85673	0.960955	-0.0830154	-0.0730202	-0.213765	0.125432	0.0654053	0	0	-0.159483	0.0603651	-0.195568	0.00973844	0.0668941	0	0	0.0236727	-0.0204411	-0.00275112	-0.0836442	-0.0865806	-0.235415	0.305756	1.5708	0	0	0.05046	-0.0694455	-0.456715	0.0757688	1.5708	0	0
0.23	0.635235	1.53216	-2.23972	0.661406	1.85649	0.960927	-0.084329	-0.0728724	-0.215053	0.124018	0.0649176	0	0	-0.158667	0.0599393	-0.195232	0.0116036	0.0679772	0	0	0.024418	-0.019641	-0.00420482	-0.0845291	-0.0872436	-0.231449	0.308153	1.5708	0	0	0.047225	-0.0686571	-0.445061	0.0824596	1.5708	0	0
0.24	0.633396	1.53294	-2.23772	0.661622	1.85627	0.960859	-0.0844852	-0.0726116	-0.214561	0.123235	0.0644267	0	0	-0.157479	0.0596237	-0.195726	0.0130013	0.0688391	0	0	0.0257671	-0.0185486	-0.00441612	-0.0862042	-0.088875	-0.22151	0.311717	1.5708	0	0	0.039886	-0.0675778	-0.416706	0.0981158	1.5708	0	0
0.25	0.630491	1.53357	-2.23486	0.661789	1.85605	0.960811	-0.0846038	-0.0723718	-0.213837	0.122627	0.0638689	0	0	-0.156636	0.0593672	-0.196153	0.0140633	0.0695505	0	0	0.0269573	-0.0176738	-0.00397675	-0.0855317	-0.0890967	-0.224609	0.310412	1.5708	0	0	0.0447597	-0.0681293	-0.436627	0.0870369	1.5708	0	0
0.26	0.625938	1.53425	-2.23046	0.661947	1.85585	0.960775	-0.0846715	-0.072016	-0.212762	0.121917	0.0631837	0	0	-0.15569	0.0589768	-0.196745	0.0153393	0.0704141	0	0	0.0280663	-0.016728	-0.00342935	-0.0847774	-0.0898015	-0.225246	0.308883	1.5708	0	0	0.0487519	-0.0689463	-0.452624	0.0777019	1.5708	0	0
0.27	0.622996	1.53473	-2.22764	0.662129	1.85569	0.96076	-0.0847457	-0.0719056	-0.212043	0.121431	0.0626933	0	0	-0.15489	0.0587751	-0.197395	0.016601	0.0711761	0	0	0.0289557	-0.015876	-0.00305655	-0.0837292	-0.0907476	-0.223946	0.307076	1.5708	0	0	0.0521545	-0.0699647	-0.466267	0.0696663	1.5708	0	0
0.28	0.620185	1.53499	-2.225	0.662343	1.85555	0.960769	-0.0849205	-0.0719655	-0.211604	0.121024	0.0621875	0	0	-0.154289	0.0587392	-0.198353	0.0177402	0.0718726	0	0	0.0293561	-0.0152081	-0.00267677	-0.0825469	-0.0918654	-0.222142	0.305322	1.5708	0	0	0.0549512	-0.0712173	-0.478152	0.0632371	1.5708	0	0
0.29	0.614713	1.53539	-2.21989	0.662543	1.85545	0.960777	-0.0850813	-0.0717437	-0.210816	0.120308	0.0614485	0	0	-0.153743	0.0586122	-0.198484	0.0185987	0.0725025	0	0	0.0297412	-0.0144529	-0.00200049	-0.0811342	-0.0930124	-0.220651	0.302985	1.5708	0	0	0.0571665	-0.0727147	-0.488259	0.0580817	1.5708	0	0
0.3	0.612388	1.53576	-2.2178	0.662779	1.85538	0.960775	-0.0851647	-0.0717526	-0.210483	0.119613	0.060711	0	0	-0.153066	0.0585941	-0.198717	0.019532	0.0731437	0	0	0.0301235	-0.0138371	-0.00153587	-0.0794351	-0.0940959	-0.219983	0.300115	1.5708	0	0	0.0589458	-0.074298	-0.496698	0.0538913	1.5708	0	0
0.31	0.612554	1.53608	-2.21818	0.663053	1.85535	0.960761	-0.0849923	-0.0720192	-0.210654	0.119344	0.0600871	0	0	-0.152287	0.0586707	-0.199385	0.0205486	0.0738103	0	0	0.0303583	-0.0133095	-0.00115723	-0.0774405	-0.0951288	-0.21979	0.297265	1.5708	0	0	0.0604083	-0.0759197	-0.503548	0.050456	1.5708	0	0
0.32	0.613069	1.53666	-2.21911	0.66333	1.85539	0.960719	-0.0842409	-0.0721744	-0.210382	0.119525	0.05969	0	0	-0.151259	0.0586657	-0.199357	0.0214776	0.0744035	0	0	0.0305461	-0.012626	-0.000716022	-0.0748927	-0.0961961	-0.220522	0.294319	1.5708	0	0	0.0617922	-0.0775787	-0.509925	0.0474929	1.5708	0	0
0.33	0.614492	1.53721	-2.22077	0.663657	1.85548	0.960679	-0.0835747	-0.0723021	-0.20987	0.119476	0.059161	0	0	-0.150096	0.0587112	-0.19932	0.0225184	0.0749802	0	0	0.0305762	-0.0119822	-0.000560493	-0.0719044	-0.0971918	-0.222368	0.291031	1.5708	0	0	0.0629599	-0.0793386	-0.515674	0.0450012	1.5708	0	0
0.34	0.61381	1.5377	-2.22021	0.664029	1.85558	0.96066	-0.0830708	-0.0724153	-0.20947	0.119356	0.0586085	0	0	-0.148871	0.0587404	-0.199624	0.0237829	0.0756067	0	0	0.0303706	-0.0113176	-0.000600015	-0.0689302	-0.0978462	-0.223694	0.287657	1.5708	0	0	0.0637052	-0.0811922	-0.520396	0.0433707	1.5708	0	0
0.35	0.614664	1.53804	-2.22081	0.664461	1.85568	0.96065	-0.0827456	-0.0726722	-0.209576	0.119197	0.0581849	0	0	-0.147582	0.0588665	-0.199945	0.0253208	0.0763784	0	0	0.0299782	-0.0109938	-0.000891275	-0.0662388	-0.0983159	-0.224696	0.284469	1.5708	0	0	0.0643186	-0.0832075	-0.524237	0.0421839	1.5708	0	0
0.36	0.616496	1.53829	-2.22225	0.664909	1.85577	0.960638	-0.0826549	-0.0730454	-0.209836	0.118838	0.0577161	0	0	-0.146486	0.0591058	-0.200123	0.0266526	0.0770499	0	0	0.0295501	-0.0108693	-0.00134721	-0.0639664	-0.0988497	-0.22537	0.28193	1.5708	0	0	0.0646782	-0.0853189	-0.527444	0.0412428	1.5708	0	0
